<?xml version="1.0" encoding="utf-8"?>
<!-- Generator: Adobe Illustrator 21.1.0, SVG Export Plug-In . SVG Version: 6.00 Build 0)  -->
<svg version="1.1" id="Ebene_1" xmlns="http://www.w3.org/2000/svg" xmlns:xlink="http://www.w3.org/1999/xlink" x="0px" y="0px"
	 width="550" height="150" style="enable-background:new 0 0 550 150;" xml:space="preserve">
<g>
	<g>
		<path style="fill:#90175C;" d="M165.4,35.5c-21.9,0-39.6,17.7-39.6,39.6s17.7,39.6,39.6,39.6S205,96.9,205,75.1
			C205,53.2,187.3,35.5,165.4,35.5z M193.5,91c-5.5,9.7-16,16.3-28,16.3c-17.7,0-32.1-14.4-32.1-32.1s14.4-32.1,32.1-32.1
			c12,0,22.6,7,28.2,16.7c0.6,1.1,1,2.4,1,3.8c0,4.4-3.6,8.1-8,8.1c-3.1,0-5.7-1.7-7.1-4.2c-2.6-4.8-8.1-8.3-14-8.3
			c-8.9,0-16.1,7.2-16.1,16.1s7.2,16.1,16.1,16.1c6,0,11.4-3.6,14.1-8.5c1.4-2.4,4-4.1,7-4.1c4.4,0,8,3.6,8,8
			C194.6,88.1,194.1,89.9,193.5,91z M173.2,75.1c0,4.3-3.5,7.7-7.7,7.7c-4.3,0-7.7-3.5-7.7-7.7c0-4.3,3.5-7.8,7.7-7.8
			C169.7,67.3,173.2,70.8,173.2,75.1z"/>
		<path style="display:none;fill:#90175C;" d="M159.3,75.1c0,4.3,3.5,7.7,7.7,7.7c4.3,0,7.7-3.5,7.7-7.7c0-4.3-3.5-7.8-7.7-7.8
			C162.8,67.3,159.3,70.8,159.3,75.1z"/>
		<path style="display:none;fill:#90175C;" d="M188.2,78.7c-3,0-5.6,1.6-7,4.1c-2.7,5-8.1,8.5-14.1,8.5c-8.9,0-16.1-7.2-16.1-16.1
			s7.2-16.1,16.1-16.1c5.9,0,11.4,3.5,14,8.3c1.4,2.5,4,4.2,7.1,4.2c4.4,0,8-3.6,8-8.1c0-1.4-0.3-2.7-1-3.8C189.7,50,179,43,167,43
			c-17.7,0-32.1,14.4-32.1,32.1s14.4,32.1,32.1,32.1c12,0,22.5-6.6,28-16.3c0.6-1.1,1.1-2.9,1.1-4.3
			C196.3,82.3,192.7,78.7,188.2,78.7z"/>
	</g>
</g>
<g>
	<path style="fill:#030304;" d="M63.6,76.7c0,15.4-10.6,22.1-20.7,22.1C31.6,98.7,23,90.5,23,77.4c0-13.9,9.1-22.1,20.6-22.1
		C55.5,55.3,63.6,64,63.6,76.7z M30.6,77.1c0,9.1,5.2,16,12.6,16c7.2,0,12.6-6.8,12.6-16.1c0-7-3.5-16-12.4-16S30.6,69.2,30.6,77.1z
		"/>
	<path style="fill:#030304;" d="M75.2,67.5c0-4.3-0.1-7.8-0.3-11.2h6.7l0.4,6.9h0.2c2.1-3.9,6.9-7.8,13.7-7.8
		c5.8,0,14.7,3.4,14.7,17.7v24.8H103v-24c0-6.7-2.5-12.3-9.6-12.3c-5,0-8.8,3.5-10.1,7.7c-0.3,0.9-0.5,2.2-0.5,3.5v25h-7.6
		C75.2,97.8,75.2,67.5,75.2,67.5z"/>
</g>
<g>
	<path style="fill:#030304;" d="M252,96.8c-2.3,1-6.7,1.9-11.7,1.9c-13.6,0-22.2-8.2-22.2-21.5c0-12.3,8.4-22.3,24-22.3
		c3.4,0,7.2,0.6,10,1.6l-2.1,9.7c-1.5-0.7-3.9-1.3-7.3-1.3c-6.9,0-11.3,4.9-11.2,11.8c0,7.7,5.1,11.8,11.5,11.8
		c3.1,0,5.5-0.5,7.5-1.3L252,96.8z"/>
	<path style="fill:#030304;" d="M288.6,97.8l-0.8-4.2h-0.3c-2.7,3.3-7,5.1-12,5.1c-8.5,0-13.6-6.2-13.6-12.9
		c0-10.9,9.8-16.1,24.6-16v-0.6c0-2.2-1.2-5.4-7.6-5.4c-4.3,0-8.8,1.5-11.6,3.2l-2.4-8.4c2.9-1.6,8.7-3.7,16.3-3.7
		c14,0,18.5,8.2,18.5,18.1v14.6c0,4,0.2,7.9,0.6,10.2C300.3,97.8,288.6,97.8,288.6,97.8z M287,78c-6.9-0.1-12.2,1.5-12.2,6.6
		c0,3.3,2.2,5,5.1,5c3.3,0,5.9-2.1,6.8-4.8c0.2-0.7,0.3-1.5,0.3-2.2L287,78L287,78z"/>
	<path style="fill:#030304;" d="M312.2,69.2c0-5.2-0.2-9.7-0.3-13.4h11l0.6,5.7h0.3c1.8-2.7,5.5-6.6,12.7-6.6
		c5.4,0,9.7,2.7,11.5,7.1h0.2c1.5-2.1,3.4-3.9,5.4-5.1c2.3-1.4,4.9-2.1,8-2.1c8.1,0,14.2,5.7,14.2,18.2v24.7h-12.7V75
		c0-6.1-2-9.6-6.2-9.6c-3,0-5.1,2.1-6,4.5c-0.3,0.9-0.5,2.3-0.5,3.3v24.5h-12.7V74.3c0-5.3-1.9-8.9-6-8.9c-3.3,0-5.3,2.6-6.1,4.7
		c-0.4,1-0.5,2.2-0.5,3.3v24.5h-12.7V69.2H312.2z"/>
	<path style="fill:#030304;" d="M388.1,69.9c0-5.5-0.2-10.2-0.3-14.1h11.3l0.6,5.8h0.2c3.1-4.5,7.9-6.8,14-6.8
		c9.2,0,17.4,8,17.4,21.4c0,15.3-9.7,22.5-19.1,22.5c-5.1,0-9-2.1-10.9-4.8h-0.2v20.9h-13V69.9z M401.2,79.8c0,1,0.1,2,0.3,2.7
		c0.9,3.5,3.9,6.2,7.6,6.2c5.7,0,9-4.7,9-11.8c0-6.7-3-11.8-8.8-11.8c-3.7,0-7,2.7-7.8,6.6c-0.2,0.7-0.3,1.5-0.3,2.3L401.2,79.8
		L401.2,79.8z"/>
	<path style="fill:#030304;" d="M481.2,84.3c0,5.5,0.2,10,0.3,13.5h-11.3l-0.6-5.9h-0.3c-1.6,2.6-5.6,6.9-13.1,6.9
		c-8.5,0-14.8-5.3-14.8-18.3V55.8h13.1v22.6c0,6.1,2,9.8,6.5,9.8c3.6,0,5.7-2.5,6.5-4.5c0.3-0.8,0.4-1.8,0.4-2.8v-25H481v28.4H481.2
		z"/>
	<path style="fill:#030304;" d="M493.7,86.4c2.4,1.5,7.4,3.2,11.2,3.2c3.9,0,5.6-1.4,5.6-3.5s-1.3-3.2-6.2-4.8
		c-8.7-2.9-12-7.6-11.9-12.6c0-7.8,6.7-13.7,17.1-13.7c4.9,0,9.3,1.1,11.8,2.4l-2.3,9c-1.9-1-5.5-2.4-9.1-2.4c-3.2,0-5,1.3-5,3.4
		c0,2,1.6,3,6.8,4.8c8,2.7,11.3,6.8,11.4,13c0,7.8-6.2,13.6-18.2,13.6c-5.5,0-10.4-1.2-13.6-2.9L493.7,86.4z"/>
</g>
</svg>
