<?xml version="1.0" encoding="utf-8"?>
<!-- Generator: Adobe Illustrator 21.1.0, SVG Export Plug-In . SVG Version: 6.00 Build 0)  -->
<svg version="1.2" baseProfile="tiny" id="Ebene_1" xmlns="http://www.w3.org/2000/svg" xmlns:xlink="http://www.w3.org/1999/xlink"
	 x="0px" y="0px" width="558" height="153" overflow="scroll" xml:space="preserve">
<polygon fill="#899FC1" points="240.718,152 81,152 81,63 240.718,63 248.704,123.893 "/>
<g>
	<path fill="#526CA2" d="M70.016,41.757c0,0-69.838-16.2-69.821,54.891C0.201,126.087,19.315,152,19.315,152h71.947
		c-3.366-3.892-11.251-14.54-10.181-27.875c3.544-44.183,41.882-30.177,41.882-30.177s0-29.708,37.604-28.323
		c26.321,0.969,30.114,27.533,30.114,27.533s24.478-19.134,45.282,4.905c20.226,23.372,0.829,47.611-4.993,53.936h12.518
		c0,0,49.291-53.534,10.727-98.096c-34.12-39.427-74.266-8.045-74.266-8.045s-6.197-45.138-49.39-45.157
		C79.277,0.68,70.016,41.757,70.016,41.757z"/>
	<polygon fill="#F9F9F9" points="199.938,96.333 156.518,80.574 297.522,45.802 206.97,145.812 	"/>
	<polygon fill="#E6E6E6" points="199.938,96.333 206.97,145.812 297.522,45.802 	"/>
	<path fill="#F9F9F9" d="M118.432,134.973c4.088-1.014,8.167-2.036,12.19-3.25c1.006-0.302,2.023-0.559,3.018-0.897l2.968-1.065
		c1.981-0.693,3.947-1.426,5.896-2.208c7.815-3.045,15.442-6.505,22.816-10.385c7.336-3.942,14.519-8.183,21.049-13.261
		c-7.195,4.043-14.837,7.126-22.53,9.884c-7.726,2.691-15.58,4.92-23.505,6.713c-3.945,0.955-7.963,1.613-11.91,2.456
		c-3.949,0.852-7.933,1.51-11.908,2.163c-7.97,1.206-15.986,1.963-23.997,2.296c-16.023,0.658-32.047-0.449-47.658-3.328
		c-7.8-1.457-15.505-3.316-23.011-5.659c-3.751-1.171-7.456-2.45-11.075-3.854c-1.814-0.694-3.592-1.439-5.345-2.196l-2.574-1.168
		l-1.233-0.595c-0.035-0.018-0.075-0.038-0.112-0.056c1.607,8.671,4.48,16.647,7.459,23.245c2.746,0.742,5.495,1.442,8.253,2.063
		c8.41,1.891,16.889,3.219,25.389,4.102c17.003,1.727,34.105,1.502,50.902-0.558C101.911,138.38,110.235,136.903,118.432,134.973z"
		/>
</g>
<g>
	<path fill="#526CA2" d="M289,152V79h17v58h35v15H289z"/>
	<path fill="#526CA2" d="M376.839,152.634c-5.441,0-10.399-1.067-14.876-3.203c-4.478-2.134-8.3-4.94-11.467-8.419
		c-3.168-3.477-5.63-7.454-7.386-11.932c-1.757-4.476-2.635-9.091-2.635-13.843c0-4.82,0.912-9.469,2.737-13.946
		c1.824-4.476,4.373-8.419,7.645-11.828c3.271-3.409,7.145-6.129,11.622-8.161c4.477-2.03,9.365-3.048,14.669-3.048
		c5.44,0,10.398,1.068,14.876,3.203c4.477,2.135,8.299,4.958,11.467,8.471c3.167,3.513,5.612,7.507,7.335,11.983
		c1.721,4.478,2.583,9.022,2.583,13.636c0,4.821-0.914,9.471-2.738,13.946c-1.825,4.478-4.356,8.419-7.593,11.828
		c-3.237,3.409-7.094,6.147-11.57,8.213C387.03,151.601,382.142,152.634,376.839,152.634z M357.728,115.443
		c0,2.825,0.413,5.563,1.239,8.213c0.827,2.652,2.049,5.011,3.668,7.077c1.617,2.065,3.632,3.719,6.043,4.958
		c2.41,1.24,5.165,1.859,8.265,1.859c3.236,0,6.06-0.653,8.471-1.963c2.41-1.307,4.407-3.012,5.992-5.113
		c1.583-2.1,2.771-4.476,3.563-7.128c0.791-2.65,1.188-5.354,1.188-8.109c0-2.823-0.413-5.561-1.24-8.213
		c-0.826-2.65-2.065-4.992-3.719-7.024c-1.652-2.031-3.667-3.649-6.043-4.855c-2.376-1.204-5.114-1.808-8.213-1.808
		c-3.238,0-6.043,0.638-8.42,1.911c-2.376,1.275-4.374,2.944-5.991,5.01c-1.619,2.066-2.824,4.426-3.615,7.076
		C358.123,109.986,357.728,112.69,357.728,115.443z"/>
	<path fill="#526CA2" d="M455.35,152.634c-5.441,0-10.399-1.067-14.876-3.203c-4.478-2.134-8.3-4.94-11.467-8.419
		c-3.168-3.477-5.63-7.454-7.386-11.932c-1.757-4.476-2.635-9.091-2.635-13.843c0-4.82,0.912-9.469,2.737-13.946
		c1.824-4.476,4.373-8.419,7.645-11.828c3.271-3.409,7.145-6.129,11.622-8.161c4.477-2.03,9.365-3.048,14.669-3.048
		c5.44,0,10.398,1.068,14.876,3.203c4.477,2.135,8.299,4.958,11.467,8.471c3.167,3.513,5.612,7.507,7.335,11.983
		c1.721,4.478,2.583,9.022,2.583,13.636c0,4.821-0.914,9.471-2.738,13.946c-1.825,4.478-4.356,8.419-7.593,11.828
		c-3.237,3.409-7.094,6.147-11.57,8.213C465.541,151.601,460.652,152.634,455.35,152.634z M436.238,115.443
		c0,2.825,0.413,5.563,1.239,8.213c0.827,2.652,2.049,5.011,3.668,7.077c1.617,2.065,3.632,3.719,6.043,4.958
		c2.41,1.24,5.165,1.859,8.265,1.859c3.236,0,6.06-0.653,8.471-1.963c2.41-1.307,4.407-3.012,5.992-5.113
		c1.583-2.1,2.771-4.476,3.563-7.128c0.791-2.65,1.188-5.354,1.188-8.109c0-2.823-0.413-5.561-1.24-8.213
		c-0.826-2.65-2.065-4.992-3.719-7.024c-1.652-2.031-3.667-3.649-6.043-4.855c-2.376-1.204-5.114-1.808-8.213-1.808
		c-3.238,0-6.043,0.638-8.42,1.911c-2.376,1.275-4.374,2.944-5.991,5.01c-1.619,2.066-2.824,4.426-3.615,7.076
		C436.634,109.986,436.238,112.69,436.238,115.443z"/>
	<path fill="#526CA2" d="M502,152V79h31.497c3.534,0,6.773,0.728,9.72,2.183c2.944,1.455,5.473,3.362,7.588,5.717
		c2.113,2.356,3.776,5.025,4.989,8.004c1.213,2.98,1.82,5.995,1.82,9.044c0,3.258-0.572,6.377-1.716,9.355
		c-1.143,2.98-2.738,5.649-4.782,8.004c-2.045,2.357-4.521,4.228-7.432,5.614c-2.911,1.387-6.134,2.078-9.667,2.078H519v23H502z
		 M519,114h13.814c1.993,0,3.711-0.859,5.154-2.577c1.443-1.717,2.165-4.227,2.165-7.526c0-1.717-0.224-3.197-0.671-4.433
		c-0.448-1.238-1.049-2.268-1.804-3.093c-0.757-0.824-1.616-1.425-2.578-1.804C534.119,94.19,533.157,94,532.196,94H519V114z"/>
</g>
</svg>
