<?xml version="1.0" encoding="UTF-8"?>
<svg id="Ebene_1" xmlns="http://www.w3.org/2000/svg" version="1.1" viewBox="0 0 26.4 21">
  <!-- Generator: Adobe Illustrator 29.2.1, SVG Export Plug-In . SVG Version: 2.1.0 Build 116)  -->
  <defs>
    <style>
      .st0 {
        fill: #fdc60b;
      }

      .st1 {
        fill: #b18a08;
      }
    </style>
  </defs>
  <g>
    <rect class="st0" x=".5" y=".5" width="25.4" height="20" rx="1.2" ry="1.2"/>
    <path class="st1" d="M24.6,21H1.7c-.9,0-1.7-.8-1.7-1.7V1.7C0,.8.8,0,1.7,0h22.9c.9,0,1.7.8,1.7,1.7v17.6c0,.9-.8,1.7-1.7,1.7ZM1.7,1c-.4,0-.7.3-.7.7v17.6c0,.4.3.7.7.7h22.9c.4,0,.7-.3.7-.7V1.7c0-.4-.3-.7-.7-.7H1.7Z"/>
  </g>
  <path class="st1" d="M19.7,4.1c-.5,0-1-.1-1.5-.1-1.7,0-3.4.5-4.8,1.4-1.4-.9-3.1-1.4-4.8-1.4-.5,0-1,0-1.5.1-.3,0-.6.4-.6.7v8.3c0,.4.3.7.7.7,0,0,0,0,.1,0,2-.3,4.1.1,5.7,1.3h0s0,0,0,0c.2,0,.3,0,.5,0h.2c1.6-1.3,3.7-1.8,5.7-1.4.4,0,.7-.2.8-.6,0,0,0,0,0-.1V4.8c0-.3-.3-.6-.6-.7ZM12.7,13.3c-1.3-.7-2.7-1-4.2-1h-.7v-6.9c.2,0,.5,0,.7,0,1.5,0,2.9.4,4.2,1.2v6.7ZM18.9,12.3h-.7c-1.4,0-2.9.4-4.2,1v-6.7c1.2-.8,2.7-1.2,4.2-1.2.2,0,.5,0,.7,0v6.9ZM19.7,15.2c-.5,0-1-.1-1.5-.1-1.7,0-3.4.5-4.8,1.4-1.4-.9-3.1-1.4-4.8-1.4-.5,0-1,0-1.5.1-.4,0-.6.4-.6.8,0,0,0,0,0,0,0,.4.4.6.8.5,2-.3,4.1.1,5.7,1.3.2.2.6.2.8,0,1.6-1.2,3.7-1.7,5.7-1.3.4,0,.7-.2.8-.5,0-.4-.2-.7-.6-.8,0,0,0,0,0,0Z"/>
</svg>